<?xml version="1.0" encoding="iso-8859-1"?>
<svg version="1.1" id="Capa_1" xmlns="http://www.w3.org/2000/svg" xmlns:xlink="http://www.w3.org/1999/xlink" x="0px" y="0px"
	 viewBox="0 0 512 512" style="enable-background:new 0 0 512 512;" xml:space="preserve">
	<g>
		<path fill="#ffffff" d="M291,166v180c0,11.046,8.954,20,20,20c11.046,0,20-8.954,20-20V166c0-11.046-8.954-20-20-20
			C299.954,146,291,154.954,291,166z"/>
		<path fill="#ffffff" d="M437.02,74.98C388.667,26.629,324.38,0,256,0S123.333,26.629,74.98,74.98C26.629,123.333,0,187.62,0,256
			s26.629,132.667,74.98,181.02C123.333,485.371,187.62,512,256,512c46.812,0,92.616-12.757,132.462-36.893
			c9.447-5.723,12.467-18.021,6.744-27.468c-5.724-9.449-18.022-12.467-27.469-6.745C334.143,461.244,295.504,472,256,472
			c-119.103,0-216-96.897-216-216S136.897,40,256,40s216,96.897,216,216c0,42.589-12.665,84.044-36.626,119.885
			c-6.14,9.183-3.672,21.603,5.51,27.742c9.184,6.141,21.604,3.672,27.742-5.511C497.002,355.674,512,306.531,512,256
			C512,187.62,485.371,123.333,437.02,74.98z"/>
		<path fill="#ffffff" d="M181,166v180c0,11.046,8.954,20,20,20s20-8.954,20-20V166c0-11.046-8.954-20-20-20S181,154.954,181,166z"/>
	</g>
</svg>
